# xmcd CD database file
#
# Track frame offsets:
#	182
#	26432
#	46895
#	72957
#	102945
#	136132
#	165482
#	186232
#	209107
#	241395
#
# Disc length: 3527 seconds
#
# Revision: 0
# Processed by: cddbd v1.5PL3 Copyright (c) Steve Scherf et al.
# Submitted via: CDex 1.51
#
DISCID=890dc50a
DTITLE=Levy, Lou - Ya known
DYEAR=1900
DGENRE=Jazz
TTITLE0=This heart of mine
TTITLE1=Paradise
TTITLE2=Ya known
TTITLE3=Dancing in the dark
TTITLE4=Lunartique
TTITLE5=No more
TTITLE6=Quarte's fever
TTITLE7=Davana
TTITLE8='t ain't no use
TTITLE9=The hymn
EXTD=
EXTT0=
EXTT1=
EXTT2=
EXTT3=
EXTT4=
EXTT5=
EXTT6=
EXTT7=
EXTT8=
EXTT9=
PLAYORDER=
